<?xml version="1.0" encoding="UTF-8" standalone="no"?>
<svg
   xmlns:dc="http://purl.org/dc/elements/1.1/"
   xmlns:cc="http://creativecommons.org/ns#"
   xmlns:rdf="http://www.w3.org/1999/02/22-rdf-syntax-ns#"
   xmlns:svg="http://www.w3.org/2000/svg"
   xmlns="http://www.w3.org/2000/svg"
   xmlns:sodipodi="http://sodipodi.sourceforge.net/DTD/sodipodi-0.dtd"
   xmlns:inkscape="http://www.inkscape.org/namespaces/inkscape"
   version="1.1"
   id="svg2"
   xml:space="preserve"
   width="7.8399997"
   height="24"
   viewBox="0 0 7.8399997 24"
   sodipodi:docname="832.svg"
   inkscape:version="1.0.2 (e86c870879, 2021-01-15)"><metadata
     id="metadata8"><rdf:RDF><cc:Work
         rdf:about=""><dc:format>image/svg+xml</dc:format><dc:type
           rdf:resource="http://purl.org/dc/dcmitype/StillImage" /><dc:title></dc:title></cc:Work></rdf:RDF></metadata><defs
     id="defs6"><clipPath
       clipPathUnits="userSpaceOnUse"
       id="clipPath20"><path
         d="M 0,807.85 H 595.3 V 0 H 0 Z"
         id="path18" /></clipPath><clipPath
       clipPathUnits="userSpaceOnUse"
       id="clipPath28"><path
         d="M 488.167,51 V 14.456 H 516.74 V 24.921 H 498.43 V 51 Z m -57.732,0 c -2.09,-0.165 -3.479,-0.622 -3.479,-0.622 v 0 c 0,0 -4.741,-1.093 -8.564,-5.534 v 0 c -3.823,-4.44 -4.27,-9.281 -4.27,-9.281 v 0 c 0,0 -0.895,-4.352 0.938,-9.351 v 0 c 0,0 1.454,-4.328 5.299,-7.54 v 0 c 0,0 3.779,-3.613 9.593,-4.126 v 0 c 0,0 4.94,-0.806 9.879,1.785 v 0 c 0,0 2.504,1.203 4.495,3.213 v 0 l 5.479,-5.579 v 18.25 h -18.021 l 5.858,-5.912 c 0,0 -2.125,-2.277 -5.502,-2.164 v 0 c -3.374,0.112 -5.386,1.673 -6.796,3.616 v 0 c -1.409,1.94 -1.386,4.352 -1.386,4.352 v 0 c 0,0 -0.131,2.988 1.814,5.331 v 0 c 1.941,2.34 4.381,3.056 6.436,3.011 v 0 c 2.192,-0.045 5.547,-0.824 7.47,-4.999 v 0 h 9.925 c 0,0 -0.315,3.46 -2.391,6.784 v 0 c 0,0 -1.924,3.546 -5.679,5.957 v 0 c 0,0 -2.864,2.052 -7.02,2.678 v 0 c -0.386,0.058 -0.766,0.101 -1.137,0.131 v 0 z m 33.857,-0.667 c 0,0 -3.423,-0.783 -6.71,-3.591 v 0 c -3.286,-2.811 -4.692,-6.226 -4.692,-6.226 v 0 c 0,0 -1.792,-3.501 -1.702,-7.811 v 0 c 0,0 -0.154,-2.988 1.184,-6.668 v 0 c 1.342,-3.681 4.071,-6.361 4.071,-6.361 v 0 c 0,0 2.819,-2.966 6.507,-4.172 v 0 c 0,0 4.134,-1.741 8.898,-0.846 v 0 c 0,0 3.909,0.468 7.511,3.19 v 0 c 0,0 3.621,2.452 5.499,6.56 v 0 c 0,0 2.057,3.992 1.922,8.189 v 0 c -0.135,4.193 -0.895,5.777 -0.895,5.777 v 0 c 0,0 -1.14,4.283 -4.783,7.699 v 0 c 0,0 -2.928,3.099 -7.781,4.35 v 0 c -1.543,0.398 -3.018,0.533 -4.311,0.533 v 0 c -2.775,0 -4.718,-0.623 -4.718,-0.623 m 3.306,-25.637 c 0,0 -2.636,0.27 -4.738,2.835 v 0 c -2.103,2.565 -1.788,5.444 -1.788,5.444 v 0 c 0.045,3.212 2.189,5.332 2.189,5.332 v 0 c 2.458,2.587 5.656,2.501 5.656,2.501 v 0 c 5.053,-0.113 6.908,-4.085 6.908,-4.085 v 0 c 1.814,-3.077 0.761,-6.245 0.761,-6.245 v 0 c 0,0 -0.446,-2.389 -3.063,-4.419 v 0 c -1.577,-1.225 -3.406,-1.468 -4.61,-1.468 v 0 c -0.793,0 -1.315,0.105 -1.315,0.105 m 50.525,25.993 V 14.546 h 13.752 c 0,0 3.062,-0.09 5.543,0.355 v 0 c 2.481,0.446 4.314,1.341 4.314,1.341 v 0 c 0,0 4.224,1.673 7.313,5.665 v 0 c 0,0 3.328,4.017 3.621,9.193 v 0 c 0,0 0.311,2.478 -0.36,5.38 v 0 c -0.667,2.898 -1.586,4.238 -1.586,4.238 v 0 c 0,0 -1.05,2.43 -3.89,4.998 v 0 c -2.838,2.565 -5.476,3.456 -5.476,3.456 v 0 c 0,0 -2.954,1.296 -6.17,1.453 v 0 c 0,0 -1.634,0.064 -3.422,0.064 v 0 z m 9.771,-10.218 h 6.84 c 2.526,0 4.116,-1.071 4.116,-1.071 v 0 c 2.927,-1.674 3.666,-4.238 3.666,-4.238 v 0 c 1.049,-2.587 -0.046,-5.242 -0.046,-5.242 v 0 c 0,0 -0.647,-2.056 -3.016,-3.73 v 0 c -2.369,-1.669 -5.323,-1.449 -5.323,-1.449 v 0 h -6.259 z"
         id="path26" /></clipPath><clipPath
       clipPathUnits="userSpaceOnUse"
       id="clipPath42"><path
         d="M 488.167,51.05 V 14.324 H 516.74 V 24.835 H 498.43 V 51.05 Z m -57.44,0 c -2.251,-0.144 -3.771,-0.646 -3.771,-0.646 v 0 c 0,0 -4.741,-1.097 -8.564,-5.558 v 0 c -3.823,-4.46 -4.27,-9.322 -4.27,-9.322 v 0 c 0,0 -0.895,-4.37 0.938,-9.391 v 0 c 0,0 1.454,-4.347 5.299,-7.574 v 0 c 0,0 3.779,-3.629 9.593,-4.144 v 0 c 0,0 4.94,-0.809 9.879,1.794 v 0 c 0,0 2.504,1.207 4.495,3.227 v 0 l 5.461,-5.586 h 0.018 v 18.311 h -18.021 l 5.858,-5.938 c 0,0 -2.125,-2.286 -5.502,-2.173 v 0 c -3.374,0.112 -5.386,1.681 -6.796,3.632 v 0 c -1.409,1.949 -1.386,4.371 -1.386,4.371 v 0 c 0,0 -0.131,3 1.814,5.355 v 0 c 1.941,2.35 4.381,3.069 6.436,3.024 v 0 c 2.192,-0.046 5.547,-0.828 7.47,-5.021 v 0 h 9.925 c 0,0 -0.315,3.474 -2.391,6.814 v 0 c 0,0 -1.924,3.562 -5.679,5.983 v 0 c 0,0 -2.864,2.062 -7.02,2.689 v 0 c -0.485,0.073 -0.961,0.122 -1.421,0.153 v 0 z m 33.565,-0.691 c 0,0 -3.423,-0.785 -6.71,-3.606 v 0 c -3.286,-2.824 -4.692,-6.254 -4.692,-6.254 v 0 c 0,0 -1.792,-3.516 -1.702,-7.845 v 0 c 0,0 -0.154,-3.001 1.184,-6.697 v 0 c 1.342,-3.697 4.071,-6.39 4.071,-6.39 v 0 c 0,0 2.819,-2.978 6.507,-4.19 v 0 c 0,0 4.134,-1.748 8.898,-0.849 v 0 c 0,0 3.909,0.47 7.511,3.204 v 0 c 0,0 3.621,2.463 5.499,6.589 v 0 c 0,0 2.057,4.008 1.922,8.224 v 0 c -0.135,4.212 -0.895,5.803 -0.895,5.803 v 0 c 0,0 -1.14,4.302 -4.783,7.732 v 0 c 0,0 -2.928,3.114 -7.781,4.37 v 0 c -1.543,0.399 -3.019,0.536 -4.312,0.536 v 0 c -2.775,0 -4.717,-0.627 -4.717,-0.627 m 3.306,-25.748 c 0,0 -2.636,0.27 -4.738,2.846 v 0 c -2.103,2.576 -1.788,5.468 -1.788,5.468 v 0 c 0.045,3.227 2.189,5.356 2.189,5.356 v 0 c 2.458,2.598 5.656,2.511 5.656,2.511 v 0 c 5.053,-0.113 6.908,-4.103 6.908,-4.103 v 0 c 1.814,-3.091 0.761,-6.273 0.761,-6.273 v 0 c 0,0 -0.446,-2.399 -3.063,-4.437 v 0 c -1.576,-1.23 -3.405,-1.475 -4.609,-1.475 v 0 c -0.793,0 -1.316,0.107 -1.316,0.107 m 50.525,26.106 V 14.415 h 13.752 c 0,0 3.062,-0.091 5.543,0.358 v 0 c 2.481,0.447 4.314,1.346 4.314,1.346 v 0 c 0,0 4.224,1.68 7.313,5.69 v 0 c 0,0 3.328,4.035 3.621,9.232 v 0 c 0,0 0.311,2.489 -0.36,5.404 v 0 c -0.667,2.911 -1.586,4.257 -1.586,4.257 v 0 c 0,0 -1.05,2.44 -3.89,5.021 v 0 c -2.838,2.576 -5.476,3.471 -5.476,3.471 v 0 c 0,0 -2.954,1.301 -6.17,1.459 v 0 c 0,0 -1.634,0.064 -3.422,0.064 v 0 z m 9.771,-10.263 h 6.84 c 2.526,0 4.116,-1.075 4.116,-1.075 v 0 c 2.927,-1.682 3.666,-4.257 3.666,-4.257 v 0 c 1.049,-2.6 -0.046,-5.265 -0.046,-5.265 v 0 c 0,0 -0.647,-2.065 -3.016,-3.746 v 0 c -2.369,-1.678 -5.323,-1.455 -5.323,-1.455 v 0 h -6.259 z"
         id="path40" /></clipPath><clipPath
       clipPathUnits="userSpaceOnUse"
       id="clipPath152"><path
         d="m 70.85,765.35 h 35 v 35 h -35 z"
         clip-rule="evenodd"
         id="path150" /></clipPath><clipPath
       clipPathUnits="userSpaceOnUse"
       id="clipPath182"><path
         d="m 354.227,670 h 163.246 v 80.679 H 354.227 Z"
         id="path180" /></clipPath><clipPath
       clipPathUnits="userSpaceOnUse"
       id="clipPath200"><path
         d="m 139.64,748.85 c -2.376,-0.167 -7.193,-0.799 -12.349,-3.156 v 0 c -3.737,-1.71 -8.118,-4.807 -10.805,-7.674 v 0 c -2.325,-2.481 -4.536,-5.907 -5.832,-8.776 v 0 c -2.277,-5.04 -3.02,-9.914 -3.254,-12.937 v 0 -6.168 c 0.145,-1.601 0.47,-3.705 1.178,-6.011 v 0 c 1.398,-4.558 4.403,-9.909 8.247,-13.753 v 0 c 3.997,-3.999 8.531,-6.894 13.207,-8.434 v 0 c 5.225,-1.721 10.392,-1.845 10.392,-1.845 v 0 c 0,0 4.79,-0.671 11.512,1.341 v 0 c 2.907,0.87 7.182,2.938 9.919,4.624 v 0 c 7.662,4.719 12.256,14.783 12.256,14.783 v 0 c 0,0 1.442,2.141 3.138,2.19 v 0 c 1.634,0.046 3.523,-1.999 3.523,-1.999 v 0 l 2.665,-3.807 1.808,-0.952 1.523,0.095 1.522,1.618 0.381,5.045 h 47.961 l 1.428,0.856 12.466,12.279 0.761,1.712 -0.191,1.619 -4.472,5.71 -2.093,1.714 H 178.87 c 0,0 -2.255,0.154 -3.51,0.907 v 0 c -1.359,0.814 -1.725,2.234 -1.725,2.234 v 0 c 0,0 -4.308,8.866 -12.776,13.784 v 0 c -3.114,1.809 -6.917,3.458 -10.346,4.214 v 0 c -2.071,0.456 -4.004,0.681 -5.568,0.787 v 0 z"
         id="path198" /></clipPath><clipPath
       clipPathUnits="userSpaceOnUse"
       id="clipPath214"><path
         d="m 280.9,733.9 h 7 v 22 h -7 z"
         id="path212" /></clipPath><clipPath
       clipPathUnits="userSpaceOnUse"
       id="clipPath250"><path
         d="m 279.25,607.25 h 5.999 v 27 h -5.999 z"
         id="path248" /></clipPath><clipPath
       clipPathUnits="userSpaceOnUse"
       id="clipPath278"><path
         d="m 279.25,372.9 h 5.099 v 21.001 h -5.099 z"
         id="path276" /></clipPath><clipPath
       clipPathUnits="userSpaceOnUse"
       id="clipPath292"><path
         d="m 126.955,386.85 c -0.33,-0.025 -2.094,-0.195 -3.191,-1.078 v 0 c -1.737,-1.399 -2.847,-3.825 -2.847,-3.825 v 0 c 0,0 -2.352,0.434 -5.098,-1.733 v 0 c -2.751,-2.172 -2.904,-5.354 -2.904,-5.354 v 0 c 0,0 -2.162,-0.525 -3.365,-1.727 v 0 c -0.946,-0.944 -1.383,-2.255 -1.55,-2.892 v 0 -21.452 l 0.005,-1.097 c 0,0 0.586,-1.928 2.001,-3.106 v 0 c 0.942,-0.784 2.909,-0.983 2.909,-0.983 v 0 c 0,0 0.514,-3.177 2.776,-5.309 v 0 c 1.635,-1.541 5.226,-2.232 5.226,-2.232 v 0 c 0,0 0.649,-2.257 2.558,-3.485 v 0 c 1.281,-0.824 4.079,-0.786 4.079,-0.786 v 0 h 18.914 c 0,0 1.819,0.56 2.837,1.456 v 0 c 4.092,3.601 13.44,12.537 13.44,12.537 v 0 c 0,0 1.369,1.396 3.005,1.422 v 0 c 1.047,0.018 2.36,-1.241 2.36,-1.241 v 0 l 5.729,-2.635 c 0,0 1.598,-0.26 2.541,0.484 v 0 c 0.766,0.604 0.914,2.242 0.914,2.242 v 0 l -0.091,3.634 h 67.198 l 11.094,10.813 c 0,0 1.1,1.283 1.014,2.249 v 0 c -0.095,1.072 -1.378,1.84 -1.378,1.84 v 0 l -5.91,4.179 h -81.565 c 0,0 -1.151,0.294 -1.874,0.95 v 0 c -3.695,3.352 -13.753,13.61 -16.441,16.193 v 0 c -0.385,0.369 -1.509,0.848 -1.509,0.848 v 0 l -19.999,0.088 z m -14.859,-27.846 c 0,4.14 3.46,7.496 7.729,7.496 v 0 c 4.269,0 7.729,-3.356 7.729,-7.496 v 0 c 0,-4.14 -3.46,-7.496 -7.729,-7.496 v 0 c -4.269,0 -7.729,3.356 -7.729,7.496"
         id="path290" /></clipPath><clipPath
       clipPathUnits="userSpaceOnUse"
       id="clipPath310"><path
         d="m 388.048,391.605 c -10.403,-2.129 -19.745,-7.979 -19.745,-7.979 v 0 c 0,0 -0.708,-1.133 -1.058,-2.286 v 0 c -1.069,-3.519 -2.764,-11.187 -2.823,-19.436 v 0 c -0.074,-10.352 1.807,-20.091 2.819,-23.859 v 0 c 0.263,-0.976 1.002,-1.997 1.002,-1.997 v 0 c 0,0 8.508,-5.377 19.889,-7.843 v 0 c 8.679,-1.88 18.093,-2.343 22.468,-2.455 v 0 h 2.619 c 0.443,0.141 1.959,0.735 2.625,2.398 v 0 c 1.596,3.989 2.983,11.037 3.862,14.509 v 0 c 0.32,1.261 0.987,2.051 0.987,2.051 v 0 h 10.244 c 0,0 0.456,0.476 0.559,1.129 v 0 c 0.223,1.417 0.196,3.668 0.196,3.668 v 0 h 50.359 c 0,0 1.444,0.388 2.33,1.016 v 0 c 2.382,1.689 6.136,5.107 7.799,7.347 v 0 c 0.745,1.003 0.979,2.622 0.979,2.622 v 0 c 0,0 -4.509,5.752 -6.921,8.141 v 0 c -0.632,0.626 -2.332,1.021 -2.332,1.021 v 0 h -59.993 c 0,0 -2.005,0.562 -2.701,2.265 v 0 c -1.717,4.192 -2.966,13.33 -4.458,18.26 v 0 c -0.732,2.417 -2.511,3.098 -2.511,3.098 v 0 c 0,0 -2.515,0.455 -5.192,0.488 v 0 c -0.258,0.004 -0.523,0.005 -0.795,0.005 v 0 c -5.033,0 -12.444,-0.572 -20.208,-2.163 m -5.202,-51.209 c 0,0 -4.467,1.447 -7.041,2.718 v 0 c -1.27,0.627 -1.645,1.573 -1.645,1.573 v 0 c 0,0 -2.408,8.188 -2.254,16.783 v 0 c 0.13,7.202 2.54,13.249 2.54,13.249 v 0 c 0,0 0.665,1.385 1.372,1.742 v 0 c 2.078,1.051 5.978,1.977 5.978,1.977 v 0 c 0,0 1.772,0.963 2.829,-0.419 v 0 c 0.936,-1.224 0.035,-2.251 0.035,-2.251 v 0 c 0,0 -4.142,-7.361 -3.993,-15.923 v 0 c 0.137,-7.958 4.47,-16.207 4.47,-16.207 v 0 c 0,0 0.636,-1.566 0.032,-2.624 v 0 c -0.415,-0.726 -0.922,-0.927 -1.356,-0.927 v 0 c -0.539,0 -0.967,0.309 -0.967,0.309"
         id="path308" /></clipPath><clipPath
       clipPathUnits="userSpaceOnUse"
       id="clipPath328"><path
         d="m 528.7,378.05 h 5.251 V 398.3 H 528.7 Z"
         id="path326" /></clipPath><clipPath
       clipPathUnits="userSpaceOnUse"
       id="clipPath344"><path
         d="m 142.297,272.306 c -10.402,-2.13 -19.743,-7.98 -19.743,-7.98 v 0 c 0,0 -0.709,-1.133 -1.059,-2.287 v 0 c -1.069,-3.518 -2.763,-11.187 -2.823,-19.435 v 0 c -0.074,-10.352 1.807,-20.092 2.82,-23.859 v 0 c 0.263,-0.977 1.002,-1.996 1.002,-1.996 v 0 c 0,0 8.506,-5.379 19.889,-7.845 v 0 c 8.677,-1.879 18.091,-2.341 22.465,-2.454 v 0 h 2.621 c 0.443,0.141 1.96,0.734 2.625,2.398 v 0 c 1.595,3.989 2.982,11.036 3.862,14.509 v 0 c 0.32,1.261 0.987,2.051 0.987,2.051 v 0 h 10.244 c 0,0 0.457,0.476 0.559,1.128 v 0 c 0.224,1.419 0.196,3.669 0.196,3.669 v 0 h 50.359 c 0,0 1.444,0.388 2.33,1.016 v 0 c 2.383,1.689 6.136,5.107 7.799,7.347 v 0 c 0.744,1.003 0.978,2.622 0.978,2.622 v 0 c 0,0 -4.508,5.752 -6.92,8.141 v 0 c -0.633,0.626 -2.333,1.02 -2.333,1.02 v 0 h -59.991 c 0,0 -2.005,0.564 -2.703,2.266 v 0 c -1.716,4.193 -2.965,13.329 -4.457,18.26 v 0 c -0.732,2.416 -2.511,3.097 -2.511,3.097 v 0 c 0,0 -2.516,0.456 -5.193,0.49 v 0 c -0.254,0.004 -0.515,0.005 -0.783,0.005 v 0 c -5.034,0 -12.451,-0.573 -20.22,-2.163 m -5.201,-51.209 c 0,0 -4.468,1.447 -7.041,2.718 v 0 c -1.27,0.627 -1.646,1.572 -1.646,1.572 v 0 c 0,0 -2.407,8.187 -2.252,16.783 v 0 c 0.129,7.203 2.539,13.25 2.539,13.25 v 0 c 0,0 0.665,1.383 1.372,1.741 v 0 c 2.077,1.051 5.978,1.977 5.978,1.977 v 0 c 0,0 1.772,0.963 2.829,-0.419 v 0 c 0.936,-1.224 0.035,-2.25 0.035,-2.25 v 0 c 0,0 -4.142,-7.363 -3.994,-15.924 v 0 c 0.138,-7.958 4.471,-16.206 4.471,-16.206 v 0 c 0,0 0.637,-1.567 0.032,-2.626 v 0 c -0.415,-0.725 -0.922,-0.926 -1.356,-0.926 v 0 c -0.539,0 -0.967,0.31 -0.967,0.31"
         id="path342" /></clipPath><clipPath
       clipPathUnits="userSpaceOnUse"
       id="clipPath378"><path
         d="m 139.598,156.605 c -10.399,-1.364 -20.382,-6.446 -20.382,-6.446 v 0 c 0,0 -2.541,-1.438 -4.128,-3.611 v 0 c -1.873,-2.564 -2.838,-5.931 -2.838,-5.931 v 0 c 0,0 -2.468,-10.314 -2.58,-19.857 v 0 c -0.143,-12.181 2.064,-24.241 2.064,-24.241 v 0 c 0,0 1.056,-3.425 2.838,-5.931 v 0 c 1.699,-2.391 4.128,-3.869 4.128,-3.869 v 0 c 0,0 10.281,-5.68 21.415,-7.22 v 0 c 1.153,-0.159 2.324,-0.255 3.493,-0.299 v 0 h 3.326 c 6.859,0.242 12.789,1.846 12.789,1.846 v 0 c 0,0 2.436,0.735 4.644,2.321 v 0 c 1.897,1.363 3.612,3.611 3.612,3.611 v 0 c 0,0 1.138,4.222 3.87,6.704 v 0 c 2.936,2.669 7.482,3.611 7.482,3.611 v 0 l 9.804,0.774 1.032,0.515 0.774,0.516 0.258,1.032 v 5.673 l 1.29,1.032 h 62.437 l 1.805,1.031 10.321,11.089 0.258,1.031 v 1.29 l -0.258,1.031 -5.418,5.931 -1.032,0.516 -1.806,0.774 h -71.209 c 0,0 -5.063,0.726 -8.772,3.094 v 0 c -3.958,2.526 -6.579,6.705 -6.579,6.705 v 0 l -5.29,11.347 c 0,0 -1.154,2.27 -2.579,3.353 v 0 c -1.764,1.34 -3.87,1.547 -3.87,1.547 v 0 c 0,0 -6.476,1.443 -14.182,1.443 v 0 c -0.008,0 -0.017,0 -0.025,0 v 0 c -2.174,0 -4.442,-0.117 -6.692,-0.412 m -25.284,-38.553 c 0,7.193 3.697,13.023 8.256,13.023 v 0 c 4.56,0 8.257,-5.83 8.257,-13.023 v 0 c 0,-7.193 -3.697,-13.023 -8.257,-13.023 v 0 c -4.559,0 -8.256,5.83 -8.256,13.023"
         id="path376" /></clipPath><clipPath
       clipPathUnits="userSpaceOnUse"
       id="clipPath396"><path
         d="m 393.046,149.8 c -1.674,-0.104 -3.319,-0.337 -4.731,-0.775 v 0 c -8.018,-2.488 -13.171,-8.502 -13.171,-8.502 v 0 c 0,0 -6.032,-6.32 -6.644,-15.968 v 0 -3.601 c 0.504,-8.736 4.428,-14.858 4.428,-14.858 v 0 c 0,0 4.01,-6.304 10.708,-9.325 v 0 c 6.6,-2.977 15.499,-2.542 15.499,-2.542 v 0 c 0,0 6.79,0.434 12.211,3.724 v 0 c 5.842,3.546 10.997,10.36 10.997,10.36 v 0 c 0,0 1.916,1.516 4.661,1.918 v 0 c 2.038,0.299 5.117,-0.483 5.117,-0.483 v 0 l 7.302,-1.826 c 0,0 0.906,-0.268 1.369,0.195 v 0 c 0.376,0.376 0.326,1.5 0.326,1.5 v 0 3.913 h 49.545 l 8.345,8.215 c 0,0 1.015,0.685 0.985,1.427 v 0 c -0.035,0.877 -1.116,1.833 -1.116,1.833 v 0 c 0,0 -2.189,3.17 -3.826,4.922 v 0 c -0.663,0.709 -1.781,1.077 -1.781,1.077 v 0 h -54.499 v 3.912 c 0,0 -0.443,1.162 -1.098,1.299 v 0 c -0.877,0.183 -2.032,-0.647 -2.032,-0.647 v 0 c 0,0 -4.184,-2.248 -7.824,-2.15 v 0 c -2.239,0.061 -4.261,0.632 -5.663,1.547 v 0 c -0.849,0.554 -1.636,1.646 -1.636,1.646 v 0 c 0,0 -2.822,4.862 -7.435,8.297 v 0 c -4.308,3.208 -9.776,4.352 -9.776,4.352 v 0 c 0,0 -2.355,0.381 -5.414,0.54 v 0 z m -10.548,-34.46 c -3.818,0.759 -5.137,5.362 -5.137,5.362 v 0 c 0,0 -1.009,3.394 1.302,6.178 v 0 c 1.71,2.06 5.608,2.559 5.608,2.559 v 0 c 0,0 4.534,-0.007 6.369,-4.737 v 0 c 1.455,-3.748 -1.284,-7.391 -1.284,-7.391 v 0 c 0,0 -2.705,-2.082 -5.699,-2.082 v 0 c -0.383,0.001 -0.772,0.034 -1.159,0.111"
         id="path394" /></clipPath><clipPath
       clipPathUnits="userSpaceOnUse"
       id="clipPath422"><path
         d="m 142.391,630.672 c -0.042,0 -0.063,-10e-4 -0.063,-10e-4 v 0 c 0,0 -9.051,-0.523 -13.805,-4.707 v 0 c -7.57,-6.661 -7.96,-14.639 -7.96,-14.639 v 0 c 0,0 -10.78,-4.556 -10.912,-18.99 v 0 c -0.106,-11.551 10.428,-16.802 10.428,-16.802 v 0 c 0,0 1.866,-10.384 9.188,-15.766 v 0 c 5.104,-3.752 11.147,-4.21 13.672,-4.22 v 0 h 0.172 c 0.654,0.003 1.03,0.035 1.03,0.035 v 0 c 0,0 8.476,0.448 13.77,5.326 v 0 c 5.465,5.035 7.633,14.262 7.633,14.262 v 0 c 0,0 1.359,2.002 3.183,2.527 v 0 c 1.172,0.339 3.105,-0.712 3.105,-0.712 v 0 l 6.166,-2.419 c 0,0 1.713,-0.349 2.74,0.37 v 0 c 0.738,0.516 0.888,2.169 0.888,2.169 v 0 2.562 h 63.723 c 0,0 0.883,0.525 1.553,1.205 v 0 c 3.485,3.535 13.804,14.371 13.804,14.371 v 0 c 0,0 0.996,0.835 1.026,1.812 v 0 c 0.03,1.018 -0.906,2.178 -0.906,2.178 v 0 c 0,0 -3.144,3.6 -5.535,5.824 v 0 c -1.068,0.994 -2.566,1.712 -2.566,1.712 v 0 h -71.22 v 2.984 c 0,0 -0.353,1.19 -1.179,1.649 v 0 c -0.807,0.448 -2.086,0.164 -2.086,0.164 v 0 l -6.651,-2.659 c 0,0 -1.944,-0.305 -2.935,0.041 v 0 c -1.366,0.478 -1.901,1.652 -1.901,1.652 v 0 c 0,0 -3.353,10.006 -9.684,15.075 v 0 c -5.874,4.702 -13.146,4.986 -14.514,4.997 v 0 z m -16.495,-45.914 c -4.878,1.707 -5.938,6.374 -5.938,6.374 v 0 c 0,0 -0.923,4.089 1.528,7.411 v 0 c 2.149,2.911 6.332,3.108 6.332,3.108 v 0 c 0,0 5.754,0.379 7.908,-4.814 v 0 c 2.405,-5.798 -1.016,-10.059 -1.016,-10.059 v 0 c 0,0 -2.613,-2.467 -6.211,-2.467 v 0 c -0.822,0 -1.697,0.129 -2.603,0.447"
         id="path420" /></clipPath><clipPath
       clipPathUnits="userSpaceOnUse"
       id="clipPath756"><path
         d="m 528.95,606.578 h 8.079 v 26.929 h -8.079 z"
         id="path754" /></clipPath><clipPath
       clipPathUnits="userSpaceOnUse"
       id="clipPath768"><path
         d="m 399.205,627.337 c -0.747,-0.003 -1.185,-0.051 -1.185,-0.051 v 0 c 0,0 -2.817,-0.062 -5.814,-1.108 v 0 c -2.32,-0.802 -4.578,-2.258 -6.835,-4.366 v 0 c -2.462,-2.297 -4.318,-6.292 -5.514,-9.266 v 0 c -0.613,-1.518 -0.779,-2.879 -1.337,-3.382 v 0 c -0.559,-0.504 -1.235,-0.645 -1.235,-0.645 v 0 c 0,0 -4.956,-2.124 -8.189,-6.293 v 0 c -2.644,-3.421 -2.72,-8.198 -2.721,-8.595 v 0 -0.026 c 0,0 0.008,-5.333 2.784,-9.274 v 0 c 3.108,-4.396 9.007,-7.456 9.007,-7.456 v 0 c 0,0 0.755,-0.913 1.227,-1.92 v 0 c 1.408,-3.004 4.39,-9.509 9.164,-13.089 v 0 c 3.708,-2.786 8.624,-3.242 11.352,-3.253 v 0 h 0.209 c 1.131,0.004 1.835,0.084 1.835,0.084 v 0 c 0,0 7.181,0.613 11.61,5.49 v 0 c 5.151,5.679 7.669,15.748 7.669,15.748 v 0 l 1.234,1.235 c 0,0 0.905,1.148 1.888,1.297 v 0 c 0.983,0.142 2.037,-0.715 2.037,-0.715 v 0 l 7.788,-4.366 0.802,-0.071 1.235,0.292 0.802,0.581 0.503,1.015 v 2.186 l 0.441,1.078 h 56.673 c 0,0 1.212,0.158 1.873,0.764 v 0 c 2.627,2.406 8.385,8.628 8.385,8.628 v 0 l 0.432,1.314 -0.213,1.093 c 0,0 -3.02,5.404 -4.884,7.905 v 0 c -0.566,0.763 -1.88,1.188 -1.88,1.188 v 0 H 423.19 c 0,0 -0.598,0.181 -0.905,1.149 v 0 c -0.37,1.187 -0.873,3.853 -1.651,5.6 v 0 c -1.896,4.255 -4.555,8.763 -8.283,12.309 v 0 c -4.599,4.373 -10.462,4.914 -13.029,4.92 v 0 z m -22.416,-34.53 c -0.059,3.429 2.359,7.028 6.756,7.028 v 0 c 4.396,0 7.029,-3.275 7.088,-6.598 v 0 c 0.06,-3.322 -2.139,-7.193 -6.755,-7.246 v 0 c -0.035,0 -0.07,-10e-4 -0.105,-10e-4 v 0 c -4.549,0 -6.925,3.415 -6.984,6.817"
         id="path766" /></clipPath><clipPath
       clipPathUnits="userSpaceOnUse"
       id="clipPath792"><path
         d="m 528.891,246.095 h 7.854 v 26.929 h -7.854 z"
         id="path790" /></clipPath><clipPath
       clipPathUnits="userSpaceOnUse"
       id="clipPath820"><path
         d="m 142.943,512.086 c 0,0 -9.069,-0.522 -13.833,-4.695 v 0 c -7.585,-6.641 -7.975,-14.596 -7.975,-14.596 v 0 c 0,0 -10.802,-4.541 -10.934,-18.934 v 0 c -0.107,-11.516 10.449,-16.752 10.449,-16.752 v 0 c 0,0 1.871,-10.354 9.206,-15.72 v 0 c 6.655,-4.867 14.905,-4.173 14.905,-4.173 v 0 c 0,0 8.493,0.448 13.797,5.31 v 0 c 5.477,5.021 7.649,14.221 7.649,14.221 v 0 c 0,0 1.362,1.996 3.188,2.52 v 0 c 1.176,0.338 3.112,-0.711 3.112,-0.711 v 0 l 6.179,-2.412 c 0,0 1.716,-0.347 2.745,0.369 v 0 c 0.74,0.516 0.89,2.164 0.89,2.164 v 0 2.553 h 63.852 c 0,0 0.885,0.525 1.556,1.203 v 0 c 3.492,3.523 13.832,14.328 13.832,14.328 v 0 c 0,0 0.998,0.833 1.028,1.807 v 0 c 0.03,1.014 -0.908,2.172 -0.908,2.172 v 0 c 0,0 -3.151,3.589 -5.546,5.806 v 0 c -1.07,0.991 -2.571,1.708 -2.571,1.708 v 0 H 182.2 v 2.974 c 0,0 -0.354,1.187 -1.182,1.644 v 0 c -0.807,0.447 -2.09,0.164 -2.09,0.164 v 0 l -6.664,-2.652 c 0,0 -1.947,-0.304 -2.941,0.042 v 0 c -1.369,0.476 -1.905,1.646 -1.905,1.646 v 0 c 0,0 -3.36,9.977 -9.704,15.031 v 0 c -6.026,4.802 -13.525,4.983 -14.631,4.983 v 0 c -0.092,0 -0.14,0 -0.14,0 m -16.465,-45.78 c -4.888,1.703 -5.949,6.356 -5.949,6.356 v 0 c 0,0 -0.926,4.078 1.531,7.389 v 0 c 2.153,2.902 6.344,3.1 6.344,3.1 v 0 c 0,0 5.766,0.377 7.924,-4.8 v 0 c 2.411,-5.782 -1.017,-10.03 -1.017,-10.03 v 0 c 0,0 -2.62,-2.459 -6.225,-2.459 v 0 c -0.824,0 -1.7,0.128 -2.608,0.444"
         id="path818" /></clipPath><clipPath
       clipPathUnits="userSpaceOnUse"
       id="clipPath834"><path
         d="m 399.057,505.301 c 0,0 -2.738,-0.062 -5.653,-1.079 v 0 c -2.257,-0.78 -4.452,-2.196 -6.648,-4.246 v 0 c -2.394,-2.234 -4.199,-6.12 -5.362,-9.012 v 0 c -0.597,-1.476 -0.758,-2.8 -1.301,-3.289 v 0 c -0.543,-0.49 -1.201,-0.627 -1.201,-0.627 v 0 c 0,0 -4.82,-2.066 -7.963,-6.12 v 0 c -2.686,-3.474 -2.647,-8.385 -2.647,-8.385 v 0 c 0,0 0.007,-5.186 2.708,-9.019 v 0 c 3.021,-4.277 8.759,-7.252 8.759,-7.252 v 0 c 0,0 0.734,-0.887 1.193,-1.867 v 0 c 1.37,-2.922 4.269,-9.249 8.913,-12.729 v 0 c 3.57,-2.683 8.291,-3.145 10.958,-3.164 v 0 h 0.364 c 1.054,0.008 1.705,0.08 1.705,0.08 v 0 c 0,0 6.985,0.597 11.292,5.34 v 0 c 5.011,5.524 7.459,15.315 7.459,15.315 v 0 l 1.2,1.202 c 0,0 0.881,1.117 1.836,1.262 v 0 c 0.957,0.138 1.982,-0.696 1.982,-0.696 v 0 l 7.574,-4.246 0.78,-0.068 1.201,0.282 0.78,0.566 0.49,0.987 v 2.127 l 0.428,1.048 h 55.119 c 0,0 1.178,0.153 1.82,0.742 v 0 c 2.555,2.341 8.155,8.392 8.155,8.392 v 0 l 0.421,1.278 -0.207,1.063 c 0,0 -2.937,5.256 -4.751,7.689 v 0 c -0.55,0.741 -1.828,1.154 -1.828,1.154 v 0 h -73.096 c 0,0 -0.581,0.177 -0.879,1.117 v 0 c -0.36,1.156 -0.85,3.749 -1.607,5.447 v 0 c -1.844,4.139 -4.429,8.522 -8.055,11.973 v 0 c -4.499,4.276 -10.244,4.784 -12.717,4.784 v 0 c -0.769,0 -1.222,-0.049 -1.222,-0.049 M 378.41,471.767 c -0.058,3.335 2.294,6.835 6.57,6.835 v 0 c 4.276,0 6.836,-3.185 6.894,-6.417 v 0 c 0.058,-3.231 -2.08,-6.995 -6.571,-7.047 v 0 c -0.034,0 -0.068,-10e-4 -0.101,-10e-4 v 0 c -4.424,0 -6.734,3.321 -6.792,6.63"
         id="path832" /></clipPath><clipPath
       clipPathUnits="userSpaceOnUse"
       id="clipPath992"><path
         d="m 280.65,488.373 h 7.3 v 26.929 h -7.3 z"
         id="path990" /></clipPath><clipPath
       clipPathUnits="userSpaceOnUse"
       id="clipPath1220"><path
         d="m 528.95,490.801 h 6.629 V 512.9 h -6.629 z"
         id="path1218" /></clipPath><clipPath
       clipPathUnits="userSpaceOnUse"
       id="clipPath1272"><path
         d="m 280.65,255.641 h 7 v 19 h -7 z"
         id="path1270" /></clipPath><clipPath
       clipPathUnits="userSpaceOnUse"
       id="clipPath1684"><path
         d="m 280.65,134.841 h 6 v 20 h -6 z"
         id="path1682" /></clipPath></defs><sodipodi:namedview
     pagecolor="#ffffff"
     bordercolor="#666666"
     borderopacity="1"
     objecttolerance="10"
     gridtolerance="10"
     guidetolerance="10"
     inkscape:pageopacity="0"
     inkscape:pageshadow="2"
     inkscape:window-width="1366"
     inkscape:window-height="745"
     id="namedview4"
     showgrid="false"
     inkscape:zoom="5.818959"
     inkscape:cx="12.696401"
     inkscape:cy="16.026616"
     inkscape:window-x="0"
     inkscape:window-y="23"
     inkscape:window-maximized="1"
     inkscape:current-layer="g10" /><g
     id="g10"
     inkscape:groupmode="layer"
     inkscape:label="chaves_por_marca"
     transform="matrix(1.3333333,0,0,-1.3333333,-375.20986,365.96106)"><g
       id="g1226"
       transform="translate(283.6278,274.1706)"><path
         d="M 0,0 -1.921,-2.76 0,-3.72 Z M -1.921,0 V -2.76 L 0,0 Z"
         style="fill:#000000;fill-opacity:1;fill-rule:nonzero;stroke:none"
         id="path1228" /></g><g
       id="g1230"
       transform="translate(281.7072,274.1708)"><path
         d="M 0,0 V -2.76 L 1.92,0 H 0 M 0,-2.76 1.92,0 V -3.72 L 0,-2.76"
         style="fill:none;stroke:#000000;stroke-width:0.026;stroke-linecap:round;stroke-linejoin:miter;stroke-miterlimit:10;stroke-dasharray:none;stroke-opacity:1"
         id="path1232" /></g><g
       id="g1234"
       transform="translate(281.7072,266.3708)"><path
         d="M 0,0 V -9.6 L 1.92,0.96 Z M 0,-9.6 1.92,0.96 V -9.6 Z"
         style="fill:#000000;fill-opacity:1;fill-rule:nonzero;stroke:none"
         id="path1236" /></g><g
       id="g1238"
       transform="translate(281.7072,266.3708)"><path
         d="M 0,0 V -9.6 L 1.92,0.96 0,0 M 0,-9.6 1.92,0.96 V -9.6 H 0"
         style="fill:none;stroke:#000000;stroke-width:0.026;stroke-linecap:round;stroke-linejoin:miter;stroke-miterlimit:10;stroke-dasharray:none;stroke-opacity:1"
         id="path1240" /></g><g
       id="g1242"
       transform="translate(285.6672,274.1706)"><path
         d="M 0,0 -2.039,-17.4 H 0 Z M -2.039,0 V -17.4 L 0,0 Z"
         style="fill:#000000;fill-opacity:1;fill-rule:nonzero;stroke:none"
         id="path1244" /></g><g
       id="g1246"
       transform="translate(283.6274,274.1708)"><path
         d="M 0,0 V -17.4 L 2.04,0 H 0 M 0,-17.4 2.04,0 V -17.4 H 0"
         style="fill:none;stroke:#000000;stroke-width:0.026;stroke-linecap:round;stroke-linejoin:miter;stroke-miterlimit:10;stroke-dasharray:none;stroke-opacity:1"
         id="path1248" /></g><g
       id="g1250"
       transform="translate(285.7878,274.1706)"><path
         d="M 0,0 -0.121,-8.28 0,-8.159 Z M -0.121,0 V -8.28 L 0,0 Z"
         style="fill:#000000;fill-opacity:1;fill-rule:nonzero;stroke:none"
         id="path1252" /></g><g
       id="g1254"
       transform="translate(285.6672,274.1708)"><path
         d="M 0,0 V -8.28 L 0.12,0 H 0 M 0,-8.28 0.12,0 V -8.16 L 0,-8.28"
         style="fill:none;stroke:#000000;stroke-width:0.026;stroke-linecap:round;stroke-linejoin:miter;stroke-miterlimit:10;stroke-dasharray:none;stroke-opacity:1"
         id="path1256" /></g><g
       id="g1258"
       transform="translate(285.7874,271.8907)"><path
         d="m 0,0 v -5.88 l 1.2,5.04 z m 0,-5.88 1.2,5.04 v -4.32 z"
         style="fill:#000000;fill-opacity:1;fill-rule:nonzero;stroke:none"
         id="path1260" /></g><g
       id="g1262"
       transform="translate(285.7874,271.8907)"><path
         d="M 0,0 V -5.88 L 1.2,-0.84 0,0 m 0,-5.88 1.2,5.04 V -5.16 L 0,-5.88"
         style="fill:none;stroke:#000000;stroke-width:0.026;stroke-linecap:round;stroke-linejoin:miter;stroke-miterlimit:10;stroke-dasharray:none;stroke-opacity:1"
         id="path1264" /></g><g
       id="g1266"><g
         id="g1268"
         clip-path="url(#clipPath1272)"><g
           id="g1274"
           transform="translate(285.7874,274.1708)"><path
             d="m 0,0 v -2.28 l 1.2,-0.84 v -4.32 l -1.32,-0.84 v -9.12 h -3.96 v 9.6 l 1.92,0.96 v 3.12 l -1.92,0.96 V 0 H 0"
             style="fill:none;stroke:#000000;stroke-width:0.6;stroke-linecap:round;stroke-linejoin:round;stroke-miterlimit:10;stroke-dasharray:none;stroke-opacity:1"
             id="path1276" /></g></g></g></g></svg>
